<?xml version="1.0" encoding="utf-8"?>
<svg xml:space="preserve" viewBox="0 0 100 100" y="0" x="0" xmlns="http://www.w3.org/2000/svg" id="圖層_1" version="1.1"
     width="200px" height="200px" xmlns:xlink="http://www.w3.org/1999/xlink"
     style="width:100%;height:100%;background-size:initial;background-repeat-y:initial;background-repeat-x:initial;background-position-y:initial;background-position-x:initial;background-origin:initial;background-image:initial;background-color:rgb(255, 255, 255);background-clip:initial;background-attachment:initial;animation-play-state:paused"><g class="ldl-scale" style="transform-origin:50% 50%;transform:rotate(0deg) scale(0.8, 0.8);animation-play-state:paused" ><path stroke-linejoin="round" stroke-miterlimit="10" stroke-linecap="round" stroke-width="3" stroke="#333" fill="none" d="M65.7 57.4c-4.9 1-10.2 1.5-15.7 1.5-8.7 0-17-1.4-24.2-3.8.2.6.4 1.3.6 1.9 4.2 12 42.9 12 47.1 0 .2-.6.4-1.3.6-1.9 1.3-4.2 2-8.8 2-13.7 0-26.5-15.5-14-26.8-14s-25.5-11.9-25.5 14c0 3.4.4 6.7 1 9.9h0c-10.5-1.5-17.4-2.1-17.4 4.4 0 10.9 19.1 19.7 42.6 19.7s42.4-8.8 42.4-19.7c0-5.3-4.4-5.9-11.7-5.2" style="stroke:rgb(51, 51, 51);animation-play-state:paused" ></path>
<metadata xmlns:d="https://loading.io/stock/" style="animation-play-state:paused"><d:name style="animation-play-state:paused" >sun hat</d:name>


    <d:tags style="animation-play-state:paused">sun hat,stetson,sombrero,slouch,sailor hat,planters hat,homburg,fedora cap,boater</d:tags>


    <d:license style="animation-play-state:paused">by</d:license>


    <d:slug style="animation-play-state:paused">ry3x5u</d:slug></metadata></g><!-- generated by https://loading.io/ --></svg>