<?xml version="1.0" encoding="utf-8"?><svg xml:space="preserve" viewBox="0 0 100 100" y="0" x="0" xmlns="http://www.w3.org/2000/svg" id="圖層_1" version="1.1" width="200px" height="200px" xmlns:xlink="http://www.w3.org/1999/xlink" style="width:100%;height:100%;background-size:initial;background-repeat-y:initial;background-repeat-x:initial;background-position-y:initial;background-position-x:initial;background-origin:initial;background-image:initial;background-color:rgb(255, 255, 255);background-clip:initial;background-attachment:initial;animation-play-state:paused" ><g class="ldl-scale" style="transform-origin:50% 50%;transform:rotate(0deg) scale(0.8, 0.8);animation-play-state:paused" ><path d="M50.1 51l7.4-3.9 4.6-26.7-5.4-2.6-13.9 37.1 3.5-1.9v29.2h24.5L70 45.3l6.5 25.4-1.1.4 2.3 9.3 14.8-5.9-3.3-8.3-1.7.6-7.3 2.6 7.3-2.6-13.6-38.6-7.4-2.9" stroke-linejoin="round" stroke-miterlimit="10" stroke-linecap="round" stroke-width="3" stroke="#333" fill="none" style="stroke:rgb(51, 51, 51);animation-play-state:paused" ></path>
<path d="M46.3 82.2H29.2l.8-36.9-6.5 25.4-6.3-2.2 6.3 2.2 1.1.4-2.3 9.3-14.8-5.9 3.3-8.3 1.7.6h0l13.6-38.6 9.3-3.6h0l2.7-1.4 4.1 23.9 2.9 1.7h0l4.4-11.7h0L43 17.8h13.7" stroke-linejoin="round" stroke-miterlimit="10" stroke-linecap="round" stroke-width="3" stroke="#333" fill="none" style="stroke:rgb(51, 51, 51);animation-play-state:paused" ></path>
<path stroke-linejoin="round" stroke-miterlimit="10" stroke-linecap="round" stroke-width="3" stroke="#333" fill="none" d="M54.7 57.6c1.6 0 2.9 1.3 2.9 2.9 0 1.6-1.3 2.9-2.9 2.9-1.6 0-2.9-1.3-2.9-2.9" style="stroke:rgb(51, 51, 51);animation-play-state:paused" ></path>
<path stroke-linejoin="round" stroke-miterlimit="10" stroke-linecap="round" stroke-width="3" stroke="#333" fill="none" d="M54.7 70.1c1.6 0 2.9 1.3 2.9 2.9 0 1.6-1.3 2.9-2.9 2.9-1.6 0-2.9-1.3-2.9-2.9" style="stroke:rgb(51, 51, 51);animation-play-state:paused" ></path>
<metadata xmlns:d="https://loading.io/stock/" style="animation-play-state:paused" ><d:name style="animation-play-state:paused" >coat</d:name>


<d:tags style="animation-play-state:paused" >coat,overcoat,topcoat,windbreaker,paletot,jacket</d:tags>


<d:license style="animation-play-state:paused" >by</d:license>


<d:slug style="animation-play-state:paused" >g1aikv</d:slug></metadata></g><!-- generated by https://loading.io/ --></svg>