<?xml version="1.0" encoding="utf-8"?><svg xml:space="preserve" viewBox="0 0 100 100" y="0" x="0" xmlns="http://www.w3.org/2000/svg" id="圖層_1" version="1.1" width="200px" height="200px" xmlns:xlink="http://www.w3.org/1999/xlink" style="width:100%;height:100%;background-size:initial;background-repeat-y:initial;background-repeat-x:initial;background-position-y:initial;background-position-x:initial;background-origin:initial;background-image:initial;background-color:rgb(255, 255, 255);background-clip:initial;background-attachment:initial;animation-play-state:paused" ><g class="ldl-scale" style="transform-origin:50% 50%;transform:rotate(0deg) scale(0.8, 0.8);animation-play-state:paused" ><path stroke-linejoin="round" stroke-miterlimit="10" stroke-linecap="round" stroke-width="3" stroke="#333" fill="none" d="M25.3 21.8l.3-5.1H39l-.1 1.7c0 6.1-3.8 9.2-12.6 9.2h-1.4l-3.8 64.7 17.3.3 8.1-54.9c.1-.9.6-1.6 1.2-2.2l.2-.2c-1.7-.4-2.9-1.8-2.9-3.6v-15h8v18.7h-4.3l3.6.1c.6.5 1.1 1.3 1.2 2.2l8.1 54.9 17.3-.3-3.8-64.7h-1.4c-8.9 0-12.6-3.1-12.6-9.2v-1.7h13.4l.4 7-.4-7-.5-8.2v-1H26v1l-.2 4.1" style="stroke:rgb(51, 51, 51);animation-play-state:paused" ></path>
<metadata xmlns:d="https://loading.io/stock/" style="animation-play-state:paused" ><d:name style="animation-play-state:paused" >pants</d:name>


<d:tags style="animation-play-state:paused" >pants,trousers,slacks,clothing,dress,jeans,straights,crops</d:tags>


<d:license style="animation-play-state:paused" >by</d:license>


<d:slug style="animation-play-state:paused" >46uodf</d:slug></metadata></g><!-- generated by https://loading.io/ --></svg>