<?xml version="1.0" encoding="utf-8"?><svg xml:space="preserve" viewBox="0 0 100 100" y="0" x="0" xmlns="http://www.w3.org/2000/svg" id="圖層_1" version="1.1" width="200px" height="200px" xmlns:xlink="http://www.w3.org/1999/xlink" style="width:100%;height:100%;background-size:initial;background-repeat-y:initial;background-repeat-x:initial;background-position-y:initial;background-position-x:initial;background-origin:initial;background-image:initial;background-color:rgb(255, 255, 255);background-clip:initial;background-attachment:initial;animation-play-state:paused" ><g class="ldl-scale" style="transform-origin:50% 50%;transform:rotate(0deg) scale(0.8, 0.8);animation-play-state:paused" ><path stroke-miterlimit="10" stroke-width="3" stroke="#333" fill="#e0e0e0" d="M62.7 18.1c-5.7 3-19.4 3-25.2 0-1.1-.6-2.3.4-2 1.6 3.9 14.7 25.3 14.7 29.2 0 .3-1.2-.9-2.2-2-1.6z" style="stroke:rgb(51, 51, 51);fill:rgb(224, 224, 224);animation-play-state:paused" ></path>
<path stroke-miterlimit="10" stroke-width="3" stroke="#333" fill="#fff" d="M88.6 46c-.4-3-1.3-5.9-2.8-8.4-.1-.2-.2-.3-.3-.5-4-6.7-9.2-12.6-14.1-16.8l-.6-.5c-1.6-1.3-3.1-2.4-4.6-3.3h-5.7c0 14.4-20.7 14.4-20.7 0h-6c-1.5.9-3 2-4.6 3.3l-.6.5c-4.9 4.2-10.1 10.2-14.1 16.8-.1.2-.2.3-.3.5-1.5 2.5-2.4 5.4-2.8 8.4L7.5 75.9l10.7 2.6 6.4-29.3 4.8-5.2 1.2 39.5h38.7L70.6 44l4.8 5.2 6.4 29.3 10.7-2.6L88.6 46z" style="stroke:rgb(51, 51, 51);fill:rgb(255, 255, 255);animation-play-state:paused" ></path>
<metadata xmlns:d="https://loading.io/stock/" style="animation-play-state:paused" ><d:name style="animation-play-state:paused" >long sleeve</d:name>


<d:tags style="animation-play-state:paused" >long sleeve,sweatshirt,cloth,hoodie,caftan</d:tags>


<d:license style="animation-play-state:paused" >by</d:license>


<d:slug style="animation-play-state:paused" >g665x8</d:slug></metadata></g><!-- generated by https://loading.io/ --></svg>