<?xml version="1.0" encoding="utf-8"?>
<svg xml:space="preserve" viewBox="0 0 100 100" y="0px" x="0px" xmlns:xlink="http://www.w3.org/1999/xlink"
     xmlns="http://www.w3.org/2000/svg" id="圖層_1" version="1.1" width="200px" height="200px"
     style="width:100%;height:100%;background-size:initial;background-repeat-y:initial;background-repeat-x:initial;background-position-y:initial;background-position-x:initial;background-origin:initial;background-image:initial;background-color:rgb(255, 255, 255);background-clip:initial;background-attachment:initial;animation-play-state:paused"><g class="ldl-scale" style="transform-origin:50% 50%;transform:rotate(0deg) scale(0.8, 0.8);animation-play-state:paused" ><polygon points="87.67,75.27 83.13,75.44 79.25,41.13 88.96,40.76" stroke-miterlimit="10" stroke-linejoin="round" stroke-linecap="round" stroke-width="3.5" stroke="#000000" fill="#FFFFFF" style="fill:rgb(255, 255, 255);animation-play-state:paused" ></polygon>
<g style="animation-play-state:paused"><path d="M38.67,61.66c9.94-1.98,15.99-9.77,19.21-13.48c5.28-6.08,16.01-14.57,31.16-21.63c-1.44-2.29-3.06-4-4.36-5.16 c-13.79,7.87-22.83,15.55-28.62,21.25c-4,3.94-10.12,10.53-20.34,16.46c-1.54,0.89-3.21,1.8-4.72,2.58 C33.13,61.94,36.13,62.17,38.67,61.66z" stroke-miterlimit="10" stroke-linejoin="round" stroke-linecap="round" stroke-width="3.5" stroke="#000000" fill="#FFFFFF" style="fill:rgb(255, 255, 255);animation-play-state:paused" ></path>
    <path d="M90.72,29.74c-0.5-1.17-1.08-2.22-1.68-3.18C73.88,33.61,63.16,42.1,57.88,48.18c-3.22,3.71-9.27,11.49-19.21,13.48 c-2.54,0.51-5.54,0.28-7.66,0.03c-2.03,1.06-3.75,1.91-4.41,2.23c-14.02,6.9-19.16,7.39-19.1,9.36c0.09,3.03,12.31,5.69,22.65,5.27 c5.02-0.2,9.67-0.32,14.17-3.29c4.06-2.68,4.48-5.32,8.77-10.36c1.23-1.45,6.31-7.24,13.37-11.06c9.7-5.24,22.55-6.4,24.28-9.72 c1.37-2.63,1.68-5.44,1.68-5.44c0.01-0.13,0.02-0.24,0.03-0.3C92.78,34.64,91.6,31.79,90.72,29.74z"
          stroke-miterlimit="10" stroke-linejoin="round" stroke-linecap="round" stroke-width="3.5" stroke="#000000"
          fill="#F8AFB4" style="fill:rgb(255, 255, 255);animation-play-state:paused"></path></g>
<metadata xmlns:d="https://loading.io/stock/" style="animation-play-state:paused"><d:name style="animation-play-state:paused" >wedding</d:name>


    <d:tags style="animation-play-state:paused">wedding,wedding dress,marriage,high heels,female,sexy,shoes,woman</d:tags>


    <d:license style="animation-play-state:paused">by</d:license>


    <d:slug style="animation-play-state:paused">vlmxjg</d:slug></metadata></g><!-- generated by https://loading.io/ --></svg>