<?xml version="1.0" encoding="utf-8"?><svg xml:space="preserve" viewBox="0 0 100 100" y="0" x="0" xmlns="http://www.w3.org/2000/svg" id="圖層_1" version="1.1" width="200px" height="200px" xmlns:xlink="http://www.w3.org/1999/xlink" style="width:100%;height:100%;background-size:initial;background-repeat-y:initial;background-repeat-x:initial;background-position-y:initial;background-position-x:initial;background-origin:initial;background-image:initial;background-color:rgb(255, 255, 255);background-clip:initial;background-attachment:initial;animation-play-state:paused" ><g class="ldl-scale" style="transform-origin:50% 50%;transform:rotate(0deg) scale(0.8, 0.8);animation-play-state:paused" ><path stroke-linejoin="round" stroke-miterlimit="10" stroke-linecap="round" stroke-width="3" stroke="#333" fill="none" d="M27.4 71.4c-.1-.1-.3-.1-.4-.2l-.9-.3c-.3-.1-.6-.2-.9-.4-.4-.2-.9-.4-1.3-.6l-.6-.3c-.3-.1-.6-.3-1-.4-.5-.2-1-.5-1.5-.7-.1 0-.2-.1-.2-.1l-1.2-.6c-.5-.3-1-.5-1.5-.8-.3-.2-.6-.4-.9-.5l18.3-31.6h-6.7l-21 25 .2.2c.2.1.4.3.5.4.6.5 1.2 1 1.9 1.5.3.2.5.4.8.6.6.4 1.1.8 1.7 1.2" style="stroke:rgb(51, 51, 51);animation-play-state:paused" ></path>
<path stroke-linejoin="round" stroke-miterlimit="10" stroke-linecap="round" stroke-width="3" stroke="#333" fill="none" d="M50 75.3h-.3c-1 0-1.9 0-2.9-.1h-.4c-1-.1-2-.1-2.9-.2h-.4c-.9-.1-1.9-.2-2.8-.4-.2 0-.4-.1-.6-.1-.4-.1-.7-.1-1.1-.2l7-39.5h-4.8L27.4 71.4c.2.1.5.2.7.3.3.1.7.2 1 .3l.9.3c.3.1.7.2 1 .3.5.1 1 .3 1.5.4.2.1.4.1.6.2.3.1.6.2.9.2" style="stroke:rgb(51, 51, 51);animation-play-state:paused" ></path>
<path stroke-linejoin="round" stroke-miterlimit="10" stroke-linecap="round" stroke-width="3" stroke="#333" fill="none" d="M56.5 75c-.5.1-1 .1-1.5.1h-.4c-.9.1-1.9.1-2.8.1H50.1V34.9h4.5l7 39.5c.4-.1.7-.1 1.1-.2.2 0 .4-.1.6-.1l2.7-.6c.1 0 .3-.1.4-.1.9-.2 1.9-.5 2.8-.8.1 0 .3-.1.4-.1l2.7-.9c.1 0 .2-.1.3-.1" style="stroke:rgb(51, 51, 51);animation-play-state:paused" ></path>
<path stroke-linejoin="round" stroke-miterlimit="10" stroke-linecap="round" stroke-width="3" stroke="#333" fill="none" d="M28.7 29.8v-5.1h42.7v10.2h.2l21 25c-.1.1-.2.1-.3.2-.7.6-1.5 1.2-2.2 1.8-.1.1-.2.2-.3.2-.8.6-1.6 1.2-2.4 1.7-.1.1-.2.2-.4.2l-2.4 1.5c-.2.1-.3.2-.5.3-.3.2-.6.4-1 .6L64.8 34.9h-5.5l13.3 36.5c.3-.1.7-.2 1-.4.2-.1.4-.1.6-.2.9-.3 1.7-.7 2.6-1.1.1-.1.3-.1.4-.2.4-.2.9-.4 1.3-.6" style="stroke:rgb(51, 51, 51);animation-play-state:paused" ></path>
<metadata xmlns:d="https://loading.io/stock/" style="animation-play-state:paused" ><d:name style="animation-play-state:paused" >short skirt</d:name>


<d:tags style="animation-play-state:paused" >short skirt,filibeg,pleated skirt,pleats,kilt</d:tags>


<d:license style="animation-play-state:paused" >by</d:license>


<d:slug style="animation-play-state:paused" >75vqdy</d:slug></metadata></g><!-- generated by https://loading.io/ --></svg>